<svg id="Layer_1" data-name="Layer 1" xmlns="http://www.w3.org/2000/svg" viewBox="0 0 481.31 333.56"><defs><style>.cls-1{fill:#003e44;}.cls-2{fill:none;stroke:#003e44;stroke-miterlimit:10;stroke-width:2px;}</style></defs><title>miltonlogo</title><path class="cls-1" d="M127,149.88c.12-.24.26-.48.41-.73a1.43,1.43,0,0,1,.78-.55,9,9,0,0,1,1.46-.31,17,17,0,0,1,2.56-.14c.49,0,1.13,0,1.92-.05l2.56-.09c.91,0,1.84-.07,2.78-.14l2.61-.18a8,8,0,0,1,.18,1.46c0,1-.3,1.5-.91,1.56a11,11,0,0,0-4.39,1.23,2.41,2.41,0,0,0-1.1,2.06c0,.06.05.86.14,2.42s.23,4.14.41,7.76.41,8.46.69,14.49.59,13.52,1,22.47a3.19,3.19,0,0,0,1.19,2.56,11.16,11.16,0,0,0,4.47,1.37,1,1,0,0,1,.69.5,2,2,0,0,1,.23,1,7.36,7.36,0,0,1-.19,1.47c-2.13-.13-4.06-.23-5.8-.32s-3.33-.14-4.8-.14c-.6,0-1.37,0-2.28.05l-2.88.09c-1,0-2,.07-3,.13s-1.83.12-2.56.19a8,8,0,0,1-.18-1.47c0-1,.31-1.46.91-1.46a19.42,19.42,0,0,0,5-1.46,2.59,2.59,0,0,0,1.32-2.47c0-.18-.05-1.31-.14-3.38s-.21-4.6-.36-7.58-.31-6.21-.46-9.69-.31-6.74-.46-9.82-.29-5.72-.41-7.95-.18-3.58-.18-4.06L108.2,207a5.89,5.89,0,0,1-.69,1.23,1,1,0,0,1-.86.42,2.26,2.26,0,0,1-.83-.1L83.44,157.19c-.06.61-.14,2.09-.23,4.44s-.21,5.13-.37,8.36-.32,6.64-.5,10.23-.35,6.91-.5,10-.28,5.6-.37,7.67-.13,3.17-.13,3.29q0,2.84,6.21,3.93c.61.06.91.55.91,1.46a8,8,0,0,1-.18,1.47c-1.64-.13-3.26-.23-4.84-.32s-3-.14-4.21-.14c-1,0-2.28.05-3.92.14s-3.2.19-4.66.32a7.36,7.36,0,0,1-.19-1.47c0-.85.31-1.33.92-1.46a12.46,12.46,0,0,0,4-1.32A3.23,3.23,0,0,0,77,201.14c0-.55.06-2.08.18-4.61s.26-5.53.42-9,.32-7.16.5-11.06.35-7.5.5-10.82.27-6.06.37-8.23.13-3.27.13-3.33A2.33,2.33,0,0,0,78,151.94a13.87,13.87,0,0,0-4.34-1.23c-.61-.06-.91-.58-.91-1.56a8,8,0,0,1,.18-1.46l2.7.18c1,.07,2,.11,3,.14l2.88.09c.91,0,1.64.05,2.19.05a17,17,0,0,1,2.56.14,9,9,0,0,1,1.46.31,1.43,1.43,0,0,1,.78.55c.15.25.29.49.41.73l19.55,45.6Z"/><path class="cls-1" d="M169.05,201.14a2.61,2.61,0,0,0,1.28,2.52,20.28,20.28,0,0,0,4.75,1.41c.61.13.92.61.92,1.46a7.36,7.36,0,0,1-.19,1.47c-1.89-.13-3.77-.23-5.66-.32s-3.69-.14-5.39-.14-3.46.05-5.44.14-3.85.19-5.62.32a8,8,0,0,1-.18-1.47c0-.85.3-1.33.91-1.46a16.49,16.49,0,0,0,4.75-1.37,2.69,2.69,0,0,0,1.28-2.56v-46.5a2.8,2.8,0,0,0-1.28-2.61,14.26,14.26,0,0,0-4.75-1.32.89.89,0,0,1-.73-.55,2.75,2.75,0,0,1-.18-1,8,8,0,0,1,.18-1.46q2.75.18,5.71.32c2,.09,3.76.14,5.35.14S168,148.1,170,148s3.91-.2,5.8-.32a7.36,7.36,0,0,1,.19,1.46c0,.92-.31,1.44-.92,1.56a14.33,14.33,0,0,0-4.75,1.32,2.82,2.82,0,0,0-1.28,2.61Z"/><path class="cls-1" d="M200.94,201a2.23,2.23,0,0,0,1.37,2.19,8.94,8.94,0,0,0,3.75.64h10a13.73,13.73,0,0,0,4.56-.68,9.29,9.29,0,0,0,3.29-2A12.91,12.91,0,0,0,226.3,198a27.11,27.11,0,0,0,1.87-4.25,1.06,1.06,0,0,1,1.09-.73,2.32,2.32,0,0,1,1,.23c.34.15.69.32,1.05.5q-.63,2.74-1.23,5.8c-.4,2.05-.75,4.34-1,6.9-.06.67-.24,1.1-.55,1.28a2.1,2.1,0,0,1-1.09.28c-1,0-2.33-.08-3.89-.23a40,40,0,0,0-4.06-.23H196.55c-1.4,0-3.16.05-5.3.14s-4.17.19-6.12.32a8,8,0,0,1-.18-1.47c0-.85.3-1.33.91-1.46a17.74,17.74,0,0,0,5.12-1.41,2.61,2.61,0,0,0,1.37-2.43V154.64a2.82,2.82,0,0,0-1.28-2.61,14.8,14.8,0,0,0-4.93-1.32,1,1,0,0,1-.69-.51,2,2,0,0,1-.23-1,7.62,7.62,0,0,1,.19-1.55q3.1.18,6.12.32c2,.09,3.71.14,5.12.14q3.1,0,6.57-.14t6.22-.32a8,8,0,0,1,.18,1.46c0,1-.34,1.59-1,1.65a20,20,0,0,0-5.8,1.32,3.17,3.17,0,0,0-1.87,3.16Z"/><path class="cls-1" d="M260.6,151.89v48.8a3.05,3.05,0,0,0,1.74,3,18.77,18.77,0,0,0,5.85,1.32c.67,0,1,.49,1,1.46A8.29,8.29,0,0,1,269,208c-1.95-.13-4-.23-6.17-.32s-4.34-.14-6.53-.14-4.31.05-6.53.14-4.31.19-6.26.32a7.63,7.63,0,0,1-.19-1.56c0-.85.31-1.34.92-1.46a22.88,22.88,0,0,0,5.94-1.37,3,3,0,0,0,1.82-2.92v-48.8H242.6a16.87,16.87,0,0,0-4.61.55,9.36,9.36,0,0,0-3.24,1.65,9.81,9.81,0,0,0-2.38,2.83q-1,1.74-2.1,4a1.09,1.09,0,0,1-.6.64,1.91,1.91,0,0,1-.77.18,2.8,2.8,0,0,1-1.74-.55q.92-3.28,1.37-5.84c.31-1.71.58-3.12.82-4.25a14.48,14.48,0,0,1,.78-2.61,1.39,1.39,0,0,1,1.33-.91c.42,0,1,0,1.82.09l2.52.18,2.69.19c.91.06,1.77.09,2.56.09h30.52q1.1,0,2.46-.09l2.75-.19,2.51-.18c.76-.06,1.38-.09,1.87-.09a1.39,1.39,0,0,1,1.33,1,15.2,15.2,0,0,1,.77,2.69c.25,1.16.51,2.59.78,4.3a36.83,36.83,0,0,0,1.42,5.66l-.87.37a2.42,2.42,0,0,1-1,.18,2.22,2.22,0,0,1-.82-.18,1.07,1.07,0,0,1-.64-.64,41.73,41.73,0,0,0-2-4,10.35,10.35,0,0,0-2.33-2.83,9,9,0,0,0-3.2-1.65,16.89,16.89,0,0,0-4.62-.55Z"/><path class="cls-1" d="M288.56,177.84A30.83,30.83,0,0,1,290.85,166a31.73,31.73,0,0,1,6.21-9.78,30,30,0,0,1,9.14-6.67,25.2,25.2,0,0,1,11-2.47,35.54,35.54,0,0,1,13.89,2.51,27.16,27.16,0,0,1,15.63,16.59,35.86,35.86,0,0,1,1.91,11.69,33.41,33.41,0,0,1-2.37,12.93,27.67,27.67,0,0,1-16.31,15.76,34.06,34.06,0,0,1-12,2.11,31.24,31.24,0,0,1-11.87-2.2,26.39,26.39,0,0,1-9.28-6.26,28.47,28.47,0,0,1-6-9.73A35.34,35.34,0,0,1,288.56,177.84ZM320,204.25a18.59,18.59,0,0,0,7.86-1.64A18.21,18.21,0,0,0,334,198a21.25,21.25,0,0,0,4-6.95,26.32,26.32,0,0,0,1.42-8.77,51.09,51.09,0,0,0-1.38-12.2,30.37,30.37,0,0,0-4.15-9.77,20.47,20.47,0,0,0-7-6.54,20,20,0,0,0-9.91-2.37,18.63,18.63,0,0,0-7.17,1.41,17.77,17.77,0,0,0-6,4.11,19.86,19.86,0,0,0-4.16,6.63,24.38,24.38,0,0,0-1.56,9,51.08,51.08,0,0,0,1.47,12.56,32.58,32.58,0,0,0,4.25,10.05,20.33,20.33,0,0,0,6.89,6.62A18.41,18.41,0,0,0,320,204.25Z"/><path class="cls-1" d="M404.79,193V154.82a3,3,0,0,0-1.47-2.83,14.5,14.5,0,0,0-4.93-1.28c-.67-.06-1-.58-1-1.56a8,8,0,0,1,.18-1.46c1.52.12,3.07.23,4.66.32s3.07.14,4.48.14,2.74-.05,4.2-.14,2.89-.2,4.29-.32a8.2,8.2,0,0,1,.19,1.46c0,1-.31,1.5-.92,1.56a10.34,10.34,0,0,0-4.25,1.28,3,3,0,0,0-1.14,2.65v53.81a2,2,0,0,1-.64.14c-.3,0-.55,0-.73,0a2.36,2.36,0,0,1-1.19-.32,5.1,5.1,0,0,1-1.28-1.33l-37.09-48.88v43a2.69,2.69,0,0,0,1.28,2.56,16.93,16.93,0,0,0,4.93,1.37c.61.13.91.61.91,1.46a8,8,0,0,1-.18,1.47c-1.52-.13-3.06-.23-4.61-.32s-3-.14-4.34-.14-2.65.05-4.3.14-3.14.19-4.47.32a7.36,7.36,0,0,1-.19-1.47c0-.85.34-1.33,1-1.46a14.05,14.05,0,0,0,4.43-1.37,2.81,2.81,0,0,0,1.14-2.56v-47a2.63,2.63,0,0,0-1.05-2.24,10.53,10.53,0,0,0-4.34-1.23c-.67-.12-1-.64-1-1.56a3.49,3.49,0,0,1,.09-.82,2.79,2.79,0,0,1,.09-.64c1.22.12,2.37.22,3.47.27s2,.11,3.11.14,2.07.05,2.92.05a21.51,21.51,0,0,1,3.52.18,2.3,2.3,0,0,1,1.41.91Z"/><path class="cls-1" d="M81.89,230.57H79.13v8.18a1.1,1.1,0,0,0,.77,1.11,10.17,10.17,0,0,0,2.32.49q.45.08.45.63a3.37,3.37,0,0,1-.08.63c-.67-.05-1.48-.09-2.43-.13s-1.89-.06-2.81-.06c-.64,0-1.39,0-2.23.06l-2.38.13a3.06,3.06,0,0,1-.07-.59c0-.35.13-.55.4-.6a6.62,6.62,0,0,0,2-.54,1.1,1.1,0,0,0,.58-1.06V219.9a1.19,1.19,0,0,0-.54-1.06,5.29,5.29,0,0,0-2.1-.54c-.25,0-.37-.23-.37-.63a3.15,3.15,0,0,1,.07-.6c.75.05,1.51.1,2.31.13s1.55.06,2.27.06h5q4,0,6.06,1.77a5.94,5.94,0,0,1,2.05,4.77,5.56,5.56,0,0,1-.28,1.71,6.57,6.57,0,0,1-.85,1.75,7.12,7.12,0,0,1-1.49,1.58A7.71,7.71,0,0,1,85.64,230l6.21,8.63A3.85,3.85,0,0,0,93.41,240a9.62,9.62,0,0,0,1.6.56c.22.05.33.23.33.52a3.39,3.39,0,0,1-.07.67c-.57-.05-1.26-.09-2.08-.13s-1.58-.05-2.27-.05a2.51,2.51,0,0,1-1.58-.67,8.85,8.85,0,0,1-1.51-1.71ZM81.1,229a6.43,6.43,0,0,0,4-1.09c.94-.73,1.41-2,1.41-3.85a7.49,7.49,0,0,0-.29-2.12,4.39,4.39,0,0,0-.95-1.67,4.67,4.67,0,0,0-1.71-1.12,7.29,7.29,0,0,0-2.59-.41H79.13V229Z"/><path class="cls-1" d="M113.67,218.78v9.52h5.8a1.08,1.08,0,0,0,1.06-.72,8,8,0,0,0,.5-1.77.61.61,0,0,1,.67-.48l.3,0,.3.08c0,.54-.1,1.16-.13,1.86s-.06,1.3-.06,1.82,0,.93,0,1.54.07,1.3.15,2.07a2.32,2.32,0,0,1-.56.07.63.63,0,0,1-.71-.48,7.68,7.68,0,0,0-.5-1.77,1.08,1.08,0,0,0-1.06-.72h-5.8v8.77c0,.52.34.87,1,1a14.94,14.94,0,0,0,3.31.26h2a5.37,5.37,0,0,0,1.88-.31,5,5,0,0,0,1.41-.86,6.55,6.55,0,0,0,1.1-1.28,17.75,17.75,0,0,0,.93-1.64c.07-.17.26-.26.55-.26a.82.82,0,0,1,.39.11l.4.23a8.31,8.31,0,0,0-.58,1.69c-.16.65-.32,1.28-.47,1.87a11.93,11.93,0,0,1-.46,1.53c-.16.42-.37.63-.61.63s-.49,0-.86,0l-1.21,0-1.32-.06c-.44,0-.83,0-1.15,0h-8.14q-1.08,0-2.31.06l-2.34.13a3.06,3.06,0,0,1-.07-.59c0-.35.12-.55.37-.6a8.21,8.21,0,0,0,2-.56,1.05,1.05,0,0,0,.62-1V219.9a1,1,0,0,0-.54-1,8.79,8.79,0,0,0-2.1-.58c-.25-.05-.37-.26-.37-.63a1.52,1.52,0,0,1,0-.32c0-.08,0-.18,0-.28,1.07.08,2,.13,2.68.15s1.36,0,1.93,0h7.33c1.11,0,2.08,0,2.89-.11s1.37-.11,1.64-.11.54.2.65.61a10.73,10.73,0,0,1,.28,1.47c.07.57.16,1.18.26,1.82a4.47,4.47,0,0,0,.56,1.64,1.14,1.14,0,0,1-.67.22.61.61,0,0,1-.63-.34c-.3-.64-.59-1.19-.86-1.65a4.1,4.1,0,0,0-1-1.13,3.56,3.56,0,0,0-1.3-.67,6.67,6.67,0,0,0-1.87-.23Z"/><path class="cls-1" d="M154.31,232.58H146l-2.38,6a2,2,0,0,0-.19.75c0,.52.76.89,2.27,1.11a.44.44,0,0,1,.35.21.81.81,0,0,1,.1.39,3.22,3.22,0,0,1-.08.59l-2.12-.13q-1.11-.06-2.19-.06c-.5,0-1,0-1.53,0s-1.06.08-1.63.15a2.46,2.46,0,0,1-.08-.59.88.88,0,0,1,.1-.45.45.45,0,0,1,.39-.22,6.68,6.68,0,0,0,1.73-.47,1.64,1.64,0,0,0,.83-.87l9-21.56c.18-.43.41-.64.71-.64a2,2,0,0,1,.44.08l9,22.23a1.66,1.66,0,0,0,1,.82,7.48,7.48,0,0,0,1.52.41.79.79,0,0,1,.35.2.64.64,0,0,1,.13.47,3.06,3.06,0,0,1-.07.59l-2.34-.13q-1.16-.06-2.16-.06c-.69,0-1.49,0-2.38.06s-1.7.08-2.42.13a3.06,3.06,0,0,1-.07-.59.64.64,0,0,1,.13-.47.36.36,0,0,1,.24-.13,7.37,7.37,0,0,0,1.56-.43q.6-.24.6-.72a1.42,1.42,0,0,0-.15-.56Zm-.6-1.53-3.46-9.11-3.6,9.11Z"/><path class="cls-1" d="M182.52,238.75a.91.91,0,0,0,.56.89,3.73,3.73,0,0,0,1.53.26h4a5.43,5.43,0,0,0,1.86-.28,3.77,3.77,0,0,0,1.34-.8,5,5,0,0,0,1-1.28,9.89,9.89,0,0,0,.76-1.73.45.45,0,0,1,.45-.3.87.87,0,0,1,.39.1l.43.2c-.18.74-.34,1.53-.5,2.36s-.31,1.77-.43,2.81a.69.69,0,0,1-.22.52.94.94,0,0,1-.45.11c-.42,0-1,0-1.58-.09s-1.18-.1-1.65-.1h-9.3q-.86,0-2.16.06l-2.49.13A3.06,3.06,0,0,1,176,241c0-.35.12-.55.37-.6a6.71,6.71,0,0,0,2.08-.58,1,1,0,0,0,.56-1v-19a1.13,1.13,0,0,0-.52-1.06,6.19,6.19,0,0,0-2-.54.4.4,0,0,1-.28-.2.86.86,0,0,1-.09-.39,2.71,2.71,0,0,1,.08-.64c.84.05,1.67.1,2.49.13s1.51.06,2.08.06q1.26,0,2.67-.06c1,0,1.79-.08,2.53-.13a3.31,3.31,0,0,1,.08.6c0,.42-.14.64-.41.67a7.92,7.92,0,0,0-2.36.54,1.28,1.28,0,0,0-.77,1.28Z"/><path class="cls-1" d="M231.9,218.78v9.52h5.8a1.1,1.1,0,0,0,1.06-.72,8.57,8.57,0,0,0,.5-1.77.6.6,0,0,1,.67-.48l.29,0a2,2,0,0,1,.3.08c-.05.54-.09,1.16-.13,1.86s0,1.3,0,1.82,0,.93,0,1.54.08,1.3.15,2.07a2.26,2.26,0,0,1-.56.07.62.62,0,0,1-.7-.48,8.22,8.22,0,0,0-.5-1.77,1.1,1.1,0,0,0-1.06-.72h-5.8v8.77c0,.52.33.87,1,1a14.94,14.94,0,0,0,3.31.26h2a5.33,5.33,0,0,0,1.88-.31,4.89,4.89,0,0,0,1.41-.86,6.23,6.23,0,0,0,1.1-1.28,17.75,17.75,0,0,0,.93-1.64c.07-.17.26-.26.56-.26a.89.89,0,0,1,.39.11l.39.23a9,9,0,0,0-.58,1.69c-.16.65-.31,1.28-.46,1.87a13.61,13.61,0,0,1-.47,1.53c-.16.42-.36.63-.61.63s-.48,0-.86,0l-1.2,0-1.32-.06c-.45,0-.83,0-1.16,0h-8.14c-.72,0-1.49,0-2.3.06l-2.35.13a3.06,3.06,0,0,1-.07-.59c0-.35.12-.55.37-.6a8.46,8.46,0,0,0,2-.56,1,1,0,0,0,.61-1V219.9a1,1,0,0,0-.54-1,8.79,8.79,0,0,0-2.1-.58c-.25-.05-.37-.26-.37-.63a2.73,2.73,0,0,1,0-.32c0-.08,0-.18.05-.28,1.07.08,2,.13,2.68.15s1.36,0,1.93,0h7.33c1.11,0,2.08,0,2.9-.11s1.36-.11,1.63-.11.54.2.65.61a9.41,9.41,0,0,1,.28,1.47c.08.57.16,1.18.26,1.82a4.47,4.47,0,0,0,.56,1.64,1.14,1.14,0,0,1-.67.22.61.61,0,0,1-.63-.34,17.56,17.56,0,0,0-.86-1.65,4.08,4.08,0,0,0-.94-1.13,3.64,3.64,0,0,0-1.3-.67,6.75,6.75,0,0,0-1.88-.23Z"/><path class="cls-1" d="M274.17,223.1a3.07,3.07,0,0,1-.56.07,1.08,1.08,0,0,1-.71-.19,1.22,1.22,0,0,1-.33-.4,7.59,7.59,0,0,0-2.31-3.09,6.12,6.12,0,0,0-3.64-1,5.8,5.8,0,0,0-1.69.24,4.5,4.5,0,0,0-1.4.71,3.46,3.46,0,0,0-.94,1.14,3.06,3.06,0,0,0-.36,1.48A3.46,3.46,0,0,0,263.7,225a19,19,0,0,0,4.33,2.26,15.34,15.34,0,0,1,5.26,3.14,5.87,5.87,0,0,1,1.69,4.26,8.52,8.52,0,0,1-.46,2.85,6,6,0,0,1-1.45,2.3,6.72,6.72,0,0,1-2.55,1.54,11.22,11.22,0,0,1-3.75.56,16.84,16.84,0,0,1-4.18-.48,11.71,11.71,0,0,1-3.18-1.27c-.08-1-.19-2-.34-3s-.32-1.93-.52-2.9a1.73,1.73,0,0,1,.63-.11,1,1,0,0,1,.69.21,1.6,1.6,0,0,1,.43.65,9,9,0,0,0,2.4,3.94,6.12,6.12,0,0,0,4.11,1.26,6,6,0,0,0,2.08-.33,4.25,4.25,0,0,0,1.48-.93,4.06,4.06,0,0,0,.9-1.34,4.46,4.46,0,0,0,.29-1.6,3.78,3.78,0,0,0-1.32-3.05,12.6,12.6,0,0,0-3.77-2,28.71,28.71,0,0,1-2.9-1.24,9.79,9.79,0,0,1-2.23-1.51,5.84,5.84,0,0,1-1.43-2,6.49,6.49,0,0,1-.5-2.69,6.6,6.6,0,0,1,.5-2.59,6.09,6.09,0,0,1,1.45-2.1,7,7,0,0,1,2.29-1.41,8.16,8.16,0,0,1,3-.52,15.76,15.76,0,0,1,3.34.34,22.86,22.86,0,0,1,3.61,1.11c.05.74.12,1.54.2,2.4S274,222.35,274.17,223.1Z"/><path class="cls-1" d="M300.94,218.78v19.86a1.22,1.22,0,0,0,.7,1.2,7.47,7.47,0,0,0,2.38.54c.27,0,.41.2.41.6a3.37,3.37,0,0,1-.08.63l-2.5-.13c-.88,0-1.77-.06-2.66-.06s-1.76,0-2.66.06l-2.55.13a3.25,3.25,0,0,1-.07-.63c0-.35.12-.55.37-.6a9.27,9.27,0,0,0,2.42-.55,1.21,1.21,0,0,0,.74-1.19V218.78h-3.83a6.75,6.75,0,0,0-1.88.23,3.7,3.7,0,0,0-2.28,1.82c-.28.47-.56,1-.86,1.63a.44.44,0,0,1-.24.26.79.79,0,0,1-.32.08,1.19,1.19,0,0,1-.7-.22c.25-.9.43-1.69.56-2.38s.23-1.27.33-1.73a5,5,0,0,1,.32-1.06.55.55,0,0,1,.54-.37l.74,0,1,.08,1.1.07c.37,0,.72,0,1,0H305.4c.29,0,.63,0,1,0l1.12-.07,1-.08.76,0a.56.56,0,0,1,.54.39,5.5,5.5,0,0,1,.31,1.09c.1.47.21,1.06.32,1.75a15,15,0,0,0,.58,2.31l-.36.14a.93.93,0,0,1-.39.08.88.88,0,0,1-.33-.08.44.44,0,0,1-.26-.26,16.43,16.43,0,0,0-.82-1.63,4.06,4.06,0,0,0-.95-1.15,3.56,3.56,0,0,0-1.3-.67,6.7,6.7,0,0,0-1.88-.23Z"/><path class="cls-1" d="M334.58,232.58h-8.29l-2.38,6a2.16,2.16,0,0,0-.19.75c0,.52.76.89,2.27,1.11a.44.44,0,0,1,.35.21.71.71,0,0,1,.1.39,3.22,3.22,0,0,1-.08.59l-2.12-.13q-1.11-.06-2.19-.06c-.5,0-1,0-1.52,0s-1.07.08-1.64.15a2.44,2.44,0,0,1-.07-.59,1,1,0,0,1,.09-.45.45.45,0,0,1,.39-.22,6.68,6.68,0,0,0,1.73-.47,1.64,1.64,0,0,0,.83-.87l9-21.56c.18-.43.41-.64.71-.64a2.13,2.13,0,0,1,.45.08l9,22.23a1.66,1.66,0,0,0,1,.82,7.66,7.66,0,0,0,1.52.41.79.79,0,0,1,.35.2.64.64,0,0,1,.14.47,3.22,3.22,0,0,1-.08.59l-2.34-.13q-1.15-.06-2.16-.06c-.69,0-1.48,0-2.38.06s-1.69.08-2.41.13a3.22,3.22,0,0,1-.08-.59.69.69,0,0,1,.13-.47.36.36,0,0,1,.24-.13,7.67,7.67,0,0,0,1.57-.43c.39-.16.59-.4.59-.72a1.42,1.42,0,0,0-.15-.56Zm-.6-1.53-3.45-9.11-3.61,9.11Z"/><path class="cls-1" d="M365.59,218.78v19.86a1.22,1.22,0,0,0,.7,1.2,7.47,7.47,0,0,0,2.38.54c.27,0,.41.2.41.6a3.25,3.25,0,0,1-.07.63l-2.51-.13c-.88,0-1.77-.06-2.66-.06s-1.75,0-2.66.06l-2.55.13a3.25,3.25,0,0,1-.07-.63c0-.35.12-.55.37-.6a9.27,9.27,0,0,0,2.42-.55,1.21,1.21,0,0,0,.74-1.19V218.78h-3.83a6.62,6.62,0,0,0-1.87.23,3.88,3.88,0,0,0-1.33.67,3.92,3.92,0,0,0-1,1.15c-.27.47-.56,1-.86,1.63a.44.44,0,0,1-.24.26.79.79,0,0,1-.31.08,1.2,1.2,0,0,1-.71-.22c.25-.9.43-1.69.56-2.38s.23-1.27.33-1.73a5.73,5.73,0,0,1,.32-1.06.55.55,0,0,1,.54-.37l.74,0,1,.08,1.1.07c.37,0,.72,0,1,0h12.42c.3,0,.63,0,1,0l1.12-.07,1-.08.76,0a.56.56,0,0,1,.54.39,6.16,6.16,0,0,1,.32,1.09c.09.47.2,1.06.31,1.75a16.23,16.23,0,0,0,.58,2.31l-.35.14a1,1,0,0,1-.4.08.93.93,0,0,1-.33-.08.44.44,0,0,1-.26-.26,16.43,16.43,0,0,0-.82-1.63,4.06,4.06,0,0,0-1-1.15,3.56,3.56,0,0,0-1.3-.67,6.67,6.67,0,0,0-1.87-.23Z"/><path class="cls-1" d="M394.47,218.78v9.52h5.8a1.08,1.08,0,0,0,1.06-.72,8,8,0,0,0,.5-1.77.61.61,0,0,1,.67-.48l.3,0,.3.08c-.05.54-.1,1.16-.13,1.86s-.06,1.3-.06,1.82,0,.93,0,1.54.07,1.3.15,2.07a2.32,2.32,0,0,1-.56.07.63.63,0,0,1-.71-.48,7.68,7.68,0,0,0-.5-1.77,1.08,1.08,0,0,0-1.06-.72h-5.8v8.77c0,.52.34.87,1,1a14.94,14.94,0,0,0,3.31.26h2a5.37,5.37,0,0,0,1.88-.31,5,5,0,0,0,1.41-.86,6.55,6.55,0,0,0,1.1-1.28,17.75,17.75,0,0,0,.93-1.64c.07-.17.26-.26.55-.26a.82.82,0,0,1,.39.11l.39.23a9,9,0,0,0-.57,1.69c-.16.65-.32,1.28-.47,1.87A11.93,11.93,0,0,1,406,241c-.16.42-.37.63-.61.63s-.49,0-.86,0l-1.21,0-1.32-.06c-.44,0-.83,0-1.15,0h-8.14q-1.08,0-2.31.06l-2.34.13A3.06,3.06,0,0,1,388,241c0-.35.12-.55.37-.6a8.21,8.21,0,0,0,2-.56,1.05,1.05,0,0,0,.62-1V219.9a1,1,0,0,0-.54-1,8.79,8.79,0,0,0-2.1-.58c-.25-.05-.37-.26-.37-.63a3,3,0,0,1,0-.32c0-.08,0-.18.06-.28,1.07.08,2,.13,2.68.15s1.36,0,1.93,0H400c1.11,0,2.08,0,2.89-.11s1.37-.11,1.64-.11.54.2.65.61a10.73,10.73,0,0,1,.28,1.47c.07.57.16,1.18.26,1.82a4.29,4.29,0,0,0,.56,1.64,1.14,1.14,0,0,1-.67.22.61.61,0,0,1-.63-.34c-.3-.64-.59-1.19-.86-1.65a4.1,4.1,0,0,0-1-1.13,3.56,3.56,0,0,0-1.3-.67,6.67,6.67,0,0,0-1.87-.23Z"/><polyline class="cls-2" points="14.51 154.9 241.48 54.9 469.32 154.9"/></svg>