<svg id="Layer_1" data-name="Layer 1" xmlns="http://www.w3.org/2000/svg" viewBox="0 0 216.65 103.95"><defs><style>.cls-1{fill:#fff;}.cls-2{fill:none;stroke:#fff;stroke-miterlimit:10;stroke-width:0.92px;}</style></defs><title>whitelogo</title><path class="cls-1" d="M55.89,48.53c.06-.11.12-.23.19-.34a.67.67,0,0,1,.36-.25,5.9,5.9,0,0,1,.67-.15,8.77,8.77,0,0,1,1.17-.06c.22,0,.51,0,.88,0l1.17,0,1.28-.06,1.19-.09a3.29,3.29,0,0,1,.08.67c0,.45-.14.69-.41.71a5,5,0,0,0-2,.57,1.1,1.1,0,0,0-.51.94s0,.4.07,1.11.1,1.9.19,3.56.18,3.87.31,6.64.27,6.19.44,10.3a1.49,1.49,0,0,0,.54,1.17,5.28,5.28,0,0,0,2,.63.45.45,0,0,1,.32.23.87.87,0,0,1,.1.44,3.22,3.22,0,0,1-.08.67L61.23,75C60.44,75,59.7,75,59,75l-1,0-1.32,0-1.36.06-1.18.09a4.09,4.09,0,0,1-.08-.67c0-.45.14-.67.42-.67a9.46,9.46,0,0,0,2.28-.67A1.19,1.19,0,0,0,57.36,72c0-.09,0-.6-.07-1.55s-.09-2.11-.16-3.48-.14-2.84-.21-4.44-.14-3.09-.21-4.5-.13-2.62-.19-3.64-.08-1.64-.08-1.86L47.27,74.7a2.89,2.89,0,0,1-.32.56.47.47,0,0,1-.4.19,1,1,0,0,1-.37,0L35.92,51.88c0,.28-.06.95-.11,2s-.09,2.35-.16,3.83-.15,3-.23,4.69-.16,3.17-.23,4.56-.13,2.57-.17,3.52S35,72,35,72c0,.86.94,1.46,2.84,1.8.28,0,.42.25.42.67a4.09,4.09,0,0,1-.08.67L35.92,75C35.19,75,34.55,75,34,75s-1,0-1.8.06-1.46.09-2.13.15a3.35,3.35,0,0,1-.09-.67c0-.39.14-.62.42-.67a5.61,5.61,0,0,0,1.82-.61A1.49,1.49,0,0,0,33,72c0-.25,0-1,.08-2.12s.12-2.53.19-4.12.15-3.28.23-5.07.16-3.44.23-5,.13-2.78.17-3.77.06-1.5.06-1.53a1.06,1.06,0,0,0-.52-1,6.47,6.47,0,0,0-2-.57c-.28,0-.42-.26-.42-.71a4.21,4.21,0,0,1,.08-.67l1.24.09,1.38.06,1.32,0c.42,0,.75,0,1,0a8.84,8.84,0,0,1,1.18.06,6.45,6.45,0,0,1,.67.15.68.68,0,0,1,.35.25,2.9,2.9,0,0,1,.19.34l9,20.89Z"/><path class="cls-1" d="M75.15,72a1.19,1.19,0,0,0,.59,1.15,9.59,9.59,0,0,0,2.18.65c.28.05.42.28.42.67a3.35,3.35,0,0,1-.09.67c-.86-.06-1.73-.11-2.59-.15S74,75,73.18,75s-1.58,0-2.49.06-1.76.09-2.57.15a3.35,3.35,0,0,1-.09-.67c0-.39.14-.62.42-.67a8,8,0,0,0,2.18-.63A1.23,1.23,0,0,0,71.22,72V50.71a1.3,1.3,0,0,0-.59-1.2,6.64,6.64,0,0,0-2.18-.61.38.38,0,0,1-.33-.25,1.14,1.14,0,0,1-.09-.46,3.44,3.44,0,0,1,.09-.67c.84.06,1.71.11,2.62.15s1.72.06,2.44.06,1.51,0,2.41-.06,1.8-.09,2.66-.15a3.44,3.44,0,0,1,.09.67c0,.42-.14.66-.42.71a6.64,6.64,0,0,0-2.18.61,1.3,1.3,0,0,0-.59,1.2Z"/><path class="cls-1" d="M89.77,71.93a1,1,0,0,0,.62,1,4.23,4.23,0,0,0,1.72.29h4.57a6.26,6.26,0,0,0,2.09-.31,4.4,4.4,0,0,0,1.51-.9,6.23,6.23,0,0,0,1.11-1.45,12,12,0,0,0,.85-1.94.5.5,0,0,1,.51-.34,1.1,1.1,0,0,1,.44.11l.48.23c-.2.83-.39,1.72-.57,2.65s-.34,2-.48,3.17c0,.3-.11.5-.25.58a.91.91,0,0,1-.5.13c-.48,0-1.07,0-1.78-.11s-1.34-.1-1.87-.1H87.76q-1,0-2.43.06c-1,0-1.91.09-2.81.15a4.09,4.09,0,0,1-.08-.67c0-.39.14-.62.42-.67a8.17,8.17,0,0,0,2.34-.65,1.19,1.19,0,0,0,.63-1.11V50.71a1.3,1.3,0,0,0-.59-1.2A6.8,6.8,0,0,0,83,48.9a.41.41,0,0,1-.31-.23.87.87,0,0,1-.11-.44,3.51,3.51,0,0,1,.09-.71l2.8.15c.92,0,1.71.06,2.35.06,1,0,2,0,3-.06s2-.09,2.85-.15a3.29,3.29,0,0,1,.08.67c0,.48-.15.73-.46.76a9.58,9.58,0,0,0-2.66.6A1.46,1.46,0,0,0,89.77,51Z"/><path class="cls-1" d="M117.11,49.45V71.81a1.4,1.4,0,0,0,.79,1.36,8.84,8.84,0,0,0,2.68.61c.31,0,.46.22.46.67a3.41,3.41,0,0,1-.08.71c-.89-.06-1.84-.11-2.83-.15s-2-.06-3-.06-2,0-3,.06-2,.09-2.87.15a3.51,3.51,0,0,1-.09-.71c0-.39.14-.62.42-.67a10.6,10.6,0,0,0,2.72-.63,1.35,1.35,0,0,0,.84-1.34V49.45h-4.31a7.61,7.61,0,0,0-2.12.25,4.39,4.39,0,0,0-1.48.75,4.68,4.68,0,0,0-1.09,1.3c-.31.53-.63,1.15-1,1.84a.55.55,0,0,1-.28.3.93.93,0,0,1-.35.08,1.29,1.29,0,0,1-.8-.25c.28-1,.49-1.9.63-2.68s.27-1.43.38-1.95a6.78,6.78,0,0,1,.35-1.19.64.64,0,0,1,.61-.42c.2,0,.47,0,.84,0l1.15.09,1.23.08c.42,0,.81,0,1.18,0h14c.34,0,.71,0,1.13,0l1.26-.08,1.15-.09c.35,0,.64,0,.86,0a.64.64,0,0,1,.61.44,7.28,7.28,0,0,1,.35,1.24c.11.53.23,1.18.36,2a16.43,16.43,0,0,0,.65,2.6l-.4.17a1.19,1.19,0,0,1-.44.08,1.18,1.18,0,0,1-.38-.08.5.5,0,0,1-.29-.3c-.31-.69-.62-1.31-.92-1.84a5,5,0,0,0-1.07-1.3,4.08,4.08,0,0,0-1.47-.75,7.48,7.48,0,0,0-2.11-.25Z"/><path class="cls-1" d="M129.92,61.34A14.13,14.13,0,0,1,131,55.9a14.34,14.34,0,0,1,2.85-4.48A13.44,13.44,0,0,1,138,48.36a11.66,11.66,0,0,1,5-1.13,16.16,16.16,0,0,1,6.36,1.15,12.42,12.42,0,0,1,7.16,7.6,16.24,16.24,0,0,1,.88,5.36,15.25,15.25,0,0,1-1.09,5.93,12.79,12.79,0,0,1-3,4.43,12.94,12.94,0,0,1-4.48,2.79,15.65,15.65,0,0,1-5.51,1,14.32,14.32,0,0,1-5.44-1,12.06,12.06,0,0,1-4.25-2.87,13.09,13.09,0,0,1-2.77-4.46A16.34,16.34,0,0,1,129.92,61.34Zm14.4,12.1a8.54,8.54,0,0,0,3.61-.75,8.26,8.26,0,0,0,2.8-2.1,9.55,9.55,0,0,0,1.82-3.18,11.85,11.85,0,0,0,.65-4,23.51,23.51,0,0,0-.63-5.59,14,14,0,0,0-1.9-4.48,9.24,9.24,0,0,0-3.23-3,9.08,9.08,0,0,0-4.54-1.09,8.62,8.62,0,0,0-3.29.65,8.21,8.21,0,0,0-2.76,1.88,9.08,9.08,0,0,0-1.9,3,11.09,11.09,0,0,0-.72,4.14,23.83,23.83,0,0,0,.67,5.76,15.22,15.22,0,0,0,1.95,4.61,9.41,9.41,0,0,0,3.16,3A8.45,8.45,0,0,0,144.32,73.44Z"/><path class="cls-1" d="M183.18,68.29V50.79a1.35,1.35,0,0,0-.67-1.3,6.73,6.73,0,0,0-2.26-.59c-.31,0-.46-.26-.46-.71a4.21,4.21,0,0,1,.08-.67c.7.06,1.41.11,2.14.15s1.41.06,2.05.06,1.26,0,1.93-.06,1.32-.09,2-.15a4.21,4.21,0,0,1,.08.67c0,.45-.14.69-.42.71a4.82,4.82,0,0,0-2,.59,1.4,1.4,0,0,0-.52,1.22V75.37a1.09,1.09,0,0,1-.29.06l-.34,0a1,1,0,0,1-.54-.15,2.08,2.08,0,0,1-.59-.6l-17-22.4V72a1.23,1.23,0,0,0,.59,1.17,8.14,8.14,0,0,0,2.26.63c.28.05.42.28.42.67a3.35,3.35,0,0,1-.09.67c-.69-.06-1.4-.11-2.11-.15s-1.38-.06-2-.06-1.21,0-2,.06-1.44.09-2.05.15a3.22,3.22,0,0,1-.08-.67c0-.39.15-.62.46-.67a6.82,6.82,0,0,0,2-.63,1.27,1.27,0,0,0,.52-1.17V50.5a1.21,1.21,0,0,0-.48-1,4.79,4.79,0,0,0-2-.57c-.31,0-.46-.29-.46-.71a1.4,1.4,0,0,1,0-.37,1.77,1.77,0,0,1,0-.3c.56.06,1.09.1,1.6.13s.92.05,1.42.06.95,0,1.34,0a9,9,0,0,1,1.61.09,1,1,0,0,1,.65.41Z"/><path class="cls-1" d="M35.21,85.5H34v3.75a.5.5,0,0,0,.35.51,4.24,4.24,0,0,0,1.06.22.25.25,0,0,1,.21.29,1.81,1.81,0,0,1,0,.29l-1.11-.06-1.29,0-1,0L31,90.56a1,1,0,0,1,0-.27c0-.16.06-.25.19-.27a2.94,2.94,0,0,0,.91-.25.51.51,0,0,0,.27-.49V80.61a.55.55,0,0,0-.25-.48,2.55,2.55,0,0,0-1-.25c-.12,0-.17-.11-.17-.29a1.57,1.57,0,0,1,0-.27l1.06.06,1,0h2.3a4.13,4.13,0,0,1,2.77.81,2.73,2.73,0,0,1,.94,2.19,2.56,2.56,0,0,1-.13.79,2.82,2.82,0,0,1-.39.8,3.28,3.28,0,0,1-.68.72,3.7,3.7,0,0,1-1,.54l2.84,4a1.76,1.76,0,0,0,.72.61,4.31,4.31,0,0,0,.73.26c.1,0,.16.1.16.24a1.77,1.77,0,0,1,0,.3l-1-.06-1,0a1.13,1.13,0,0,1-.73-.31,3.83,3.83,0,0,1-.69-.78Zm-.36-.7a2.92,2.92,0,0,0,1.84-.5,2.1,2.1,0,0,0,.65-1.76,3.29,3.29,0,0,0-.14-1A1.88,1.88,0,0,0,36,80.29a3.17,3.17,0,0,0-1.18-.19H34v4.7Z"/><path class="cls-1" d="M49.77,80.1v4.36h2.66a.5.5,0,0,0,.49-.33,4.19,4.19,0,0,0,.23-.81.26.26,0,0,1,.3-.22l.14,0,.14,0c0,.25,0,.54-.06.85s0,.6,0,.84,0,.43,0,.71,0,.59.07.94l-.26,0c-.18,0-.29-.07-.32-.22a4.65,4.65,0,0,0-.23-.81.5.5,0,0,0-.49-.33H49.77v4c0,.24.16.4.46.48a6.79,6.79,0,0,0,1.52.12h.94a2.28,2.28,0,0,0,.86-.15,2,2,0,0,0,.65-.39,2.94,2.94,0,0,0,.5-.59,5.27,5.27,0,0,0,.42-.75c0-.07.12-.11.26-.11a.31.31,0,0,1,.18,0l.18.1a4.55,4.55,0,0,0-.27.77c-.07.31-.14.59-.21.86a6.84,6.84,0,0,1-.21.7c-.08.2-.17.29-.28.29h-.4c-.17,0-.35,0-.55,0s-.4,0-.6,0H49l-1.06,0-1.07.06a1,1,0,0,1,0-.27c0-.16.06-.25.17-.27a3.92,3.92,0,0,0,.93-.26.48.48,0,0,0,.28-.48V80.61a.5.5,0,0,0-.24-.47,4.53,4.53,0,0,0-1-.26c-.11,0-.17-.12-.17-.29s0-.1,0-.14l0-.13,1.22.07H52.3a13.1,13.1,0,0,0,1.33-.05l.74,0c.15,0,.25.09.3.28a4.59,4.59,0,0,1,.13.68c0,.26.07.53.12.83a2,2,0,0,0,.26.75.52.52,0,0,1-.31.1.28.28,0,0,1-.29-.15c-.14-.3-.27-.55-.39-.76a2.05,2.05,0,0,0-.44-.52,1.58,1.58,0,0,0-.59-.31,3.5,3.5,0,0,0-.86-.1Z"/><path class="cls-1" d="M68.4,86.42H64.6l-1.09,2.75a.86.86,0,0,0-.09.34c0,.23.35.41,1,.51a.2.2,0,0,1,.16.09.35.35,0,0,1,0,.18,1.76,1.76,0,0,1,0,.27l-1-.06-1,0H62l-.75.07a.84.84,0,0,1,0-.27.39.39,0,0,1,0-.2.18.18,0,0,1,.17-.11,2.66,2.66,0,0,0,.8-.21.78.78,0,0,0,.38-.4l4.11-9.88c.07-.19.18-.29.32-.29l.2,0,4.13,10.19a.76.76,0,0,0,.46.38,3,3,0,0,0,.7.18.62.62,0,0,1,.16.1.29.29,0,0,1,.06.21,1.76,1.76,0,0,1,0,.27L71.6,90.5l-1,0-1.09,0-1.11.06a1.57,1.57,0,0,1,0-.27.29.29,0,0,1,.06-.21.17.17,0,0,1,.11-.06,3.67,3.67,0,0,0,.71-.2c.19-.07.28-.18.28-.33a.85.85,0,0,0-.07-.26Zm-.28-.7-1.58-4.17-1.65,4.17Z"/><path class="cls-1" d="M81.33,89.25a.42.42,0,0,0,.25.41,1.69,1.69,0,0,0,.7.12h1.86a2.41,2.41,0,0,0,.85-.13,1.64,1.64,0,0,0,.61-.37,2.5,2.5,0,0,0,.46-.58,4.93,4.93,0,0,0,.34-.8.21.21,0,0,1,.21-.13.39.39,0,0,1,.18,0l.19.09c-.08.35-.15.71-.23,1.09s-.14.81-.19,1.28a.3.3,0,0,1-.1.24.36.36,0,0,1-.21,0,7,7,0,0,1-.72,0,7.45,7.45,0,0,0-.76,0H80.51l-1,0-1.14.06a1.57,1.57,0,0,1,0-.27c0-.16.05-.25.17-.27a3.18,3.18,0,0,0,1-.27.47.47,0,0,0,.26-.45V80.61a.51.51,0,0,0-.24-.48,2.77,2.77,0,0,0-.92-.25.18.18,0,0,1-.13-.09.34.34,0,0,1,0-.18,1.68,1.68,0,0,1,0-.29l1.14.06,1,0,1.22,0,1.16-.06a1.76,1.76,0,0,1,0,.27c0,.19-.07.3-.19.31a3.79,3.79,0,0,0-1.08.24.59.59,0,0,0-.35.59Z"/><path class="cls-1" d="M104,80.1v4.36h2.66a.5.5,0,0,0,.49-.33,4.19,4.19,0,0,0,.23-.81.26.26,0,0,1,.3-.22l.14,0,.14,0c0,.25,0,.54-.06.85s0,.6,0,.84,0,.43,0,.71,0,.59.07.94l-.26,0c-.18,0-.29-.07-.32-.22a4.65,4.65,0,0,0-.23-.81.5.5,0,0,0-.49-.33H104v4c0,.24.16.4.46.48a6.73,6.73,0,0,0,1.52.12h.94a2.31,2.31,0,0,0,.86-.15,1.9,1.9,0,0,0,.64-.39,2.68,2.68,0,0,0,.51-.59,6.47,6.47,0,0,0,.42-.75c0-.07.12-.11.26-.11a.35.35,0,0,1,.18,0l.18.1a3.81,3.81,0,0,0-.27.77c-.07.31-.14.59-.21.86a6.84,6.84,0,0,1-.21.7c-.08.2-.17.29-.29.29h-.39c-.17,0-.35,0-.55,0l-.61,0h-4.26l-1,0-1.08.06a1.57,1.57,0,0,1,0-.27c0-.16.06-.25.17-.27a4.07,4.07,0,0,0,.93-.26.48.48,0,0,0,.28-.48V80.61a.49.49,0,0,0-.25-.47,4.23,4.23,0,0,0-1-.26c-.11,0-.17-.12-.17-.29a.57.57,0,0,1,0-.14s0-.09,0-.13l1.23.07h4.24a12.87,12.87,0,0,0,1.33-.05l.75,0c.15,0,.25.09.3.28a6.39,6.39,0,0,1,.13.68c0,.26.07.53.12.83a2,2,0,0,0,.25.75.47.47,0,0,1-.3.1.28.28,0,0,1-.29-.15,7.4,7.4,0,0,0-.4-.76,2,2,0,0,0-.43-.52,1.55,1.55,0,0,0-.6-.31,3.44,3.44,0,0,0-.86-.1Z"/><path class="cls-1" d="M123.32,82.08l-.25,0a.57.57,0,0,1-.33-.08.66.66,0,0,1-.15-.19,3.35,3.35,0,0,0-1.06-1.41,3.13,3.13,0,0,0-2.44-.34,2.15,2.15,0,0,0-.64.33,1.45,1.45,0,0,0-.43.52,1.4,1.4,0,0,0-.17.68,1.58,1.58,0,0,0,.68,1.31,8.84,8.84,0,0,0,2,1,6.83,6.83,0,0,1,2.41,1.44,2.68,2.68,0,0,1,.78,2,3.9,3.9,0,0,1-.21,1.3,2.86,2.86,0,0,1-.67,1.06,3.08,3.08,0,0,1-1.17.71,5.12,5.12,0,0,1-1.72.25,7.53,7.53,0,0,1-1.91-.22,5.49,5.49,0,0,1-1.46-.58c0-.48-.09-.94-.15-1.38s-.15-.89-.24-1.33a.79.79,0,0,1,.29,0,.48.48,0,0,1,.31.09.87.87,0,0,1,.2.3,4.09,4.09,0,0,0,1.1,1.81,2.82,2.82,0,0,0,1.88.58,2.52,2.52,0,0,0,1-.16,1.91,1.91,0,0,0,.69-.42,1.84,1.84,0,0,0,.4-.61,2,2,0,0,0,.14-.74,1.72,1.72,0,0,0-.6-1.39,5.76,5.76,0,0,0-1.73-.92c-.49-.19-.93-.38-1.33-.57a4.34,4.34,0,0,1-1-.69,2.69,2.69,0,0,1-.66-.92,3,3,0,0,1-.23-1.23,3.15,3.15,0,0,1,.23-1.19,2.75,2.75,0,0,1,.66-1,3.27,3.27,0,0,1,1-.65,4,4,0,0,1,1.38-.23,7.66,7.66,0,0,1,1.54.15,10.71,10.71,0,0,1,1.65.51c0,.34.05.71.09,1.1S123.26,81.74,123.32,82.08Z"/><path class="cls-1" d="M135.59,80.1v9.1a.56.56,0,0,0,.32.55A3.57,3.57,0,0,0,137,90c.13,0,.19.09.19.27a1.68,1.68,0,0,1,0,.29L136,90.5l-1.22,0-1.22,0-1.17.06a1.68,1.68,0,0,1,0-.29c0-.16.06-.25.17-.27a4.11,4.11,0,0,0,1.11-.26.55.55,0,0,0,.34-.54V80.1h-1.76a3.5,3.5,0,0,0-.86.1,1.71,1.71,0,0,0-.6.31,1.78,1.78,0,0,0-.44.53,8.32,8.32,0,0,0-.4.75.22.22,0,0,1-.11.12l-.14,0a.54.54,0,0,1-.33-.1,11.12,11.12,0,0,0,.26-1.09l.15-.79a3.28,3.28,0,0,1,.15-.49.26.26,0,0,1,.25-.17l.34,0,.46,0,.51,0h6.62l.52,0,.46,0,.35,0a.25.25,0,0,1,.25.18,3.46,3.46,0,0,1,.15.5c0,.22.09.49.14.8a7.72,7.72,0,0,0,.26,1.06l-.16.07a.48.48,0,0,1-.18,0l-.15,0a.2.2,0,0,1-.12-.12,6.57,6.57,0,0,0-.37-.75,1.94,1.94,0,0,0-.44-.53,1.58,1.58,0,0,0-.59-.31,3.5,3.5,0,0,0-.86-.1Z"/><path class="cls-1" d="M151,86.42h-3.8l-1.09,2.75a.86.86,0,0,0-.09.34c0,.23.35.41,1,.51a.18.18,0,0,1,.16.09.35.35,0,0,1,.05.18,1,1,0,0,1,0,.27l-1-.06-1,0h-.7l-.75.07a1.26,1.26,0,0,1,0-.27.39.39,0,0,1,.05-.2A.21.21,0,0,1,144,90a2.67,2.67,0,0,0,.79-.21.78.78,0,0,0,.38-.4l4.11-9.88c.08-.19.19-.29.32-.29l.21,0,4.12,10.19a.79.79,0,0,0,.46.38,3.14,3.14,0,0,0,.7.18.49.49,0,0,1,.16.1.29.29,0,0,1,.06.21,1,1,0,0,1,0,.27l-1.07-.06-1,0-1.09,0-1.1.06a1,1,0,0,1,0-.27.29.29,0,0,1,.06-.21.17.17,0,0,1,.11-.06,3.59,3.59,0,0,0,.72-.2.35.35,0,0,0,.27-.33.63.63,0,0,0-.07-.26Zm-.27-.7-1.59-4.17-1.65,4.17Z"/><path class="cls-1" d="M165.22,80.1v9.1a.56.56,0,0,0,.32.55,3.57,3.57,0,0,0,1.09.25c.13,0,.19.09.19.27a1.11,1.11,0,0,1,0,.29l-1.14-.06-1.22,0-1.22,0-1.17.06a1.68,1.68,0,0,1,0-.29c0-.16.05-.25.17-.27a4.11,4.11,0,0,0,1.11-.26.55.55,0,0,0,.34-.54V80.1h-1.76a3.44,3.44,0,0,0-.86.1,1.71,1.71,0,0,0-.6.31A2,2,0,0,0,160,81q-.18.31-.39.75a.22.22,0,0,1-.11.12l-.14,0a.52.52,0,0,1-.33-.1,11.12,11.12,0,0,0,.26-1.09c0-.32.11-.58.15-.79a2.41,2.41,0,0,1,.15-.49.25.25,0,0,1,.24-.17l.34,0,.47,0,.5,0h6.63l.51,0,.47,0,.35,0a.26.26,0,0,1,.25.18,2.62,2.62,0,0,1,.14.5c.05.22.1.49.15.8a7.72,7.72,0,0,0,.26,1.06l-.16.07a.48.48,0,0,1-.18,0,.44.44,0,0,1-.15,0,.2.2,0,0,1-.12-.12,6.5,6.5,0,0,0-.38-.75,1.92,1.92,0,0,0-.43-.53,1.63,1.63,0,0,0-.6-.31,3.44,3.44,0,0,0-.86-.1Z"/><path class="cls-1" d="M178.46,80.1v4.36h2.65a.5.5,0,0,0,.49-.33,3.58,3.58,0,0,0,.23-.81c0-.15.13-.22.31-.22l.13,0,.14,0c0,.25,0,.54-.06.85s0,.6,0,.84,0,.43,0,.71,0,.59.07.94l-.26,0c-.18,0-.29-.07-.32-.22a3.92,3.92,0,0,0-.23-.81.5.5,0,0,0-.49-.33h-2.65v4c0,.24.15.4.46.48a6.63,6.63,0,0,0,1.51.12h.94a2.28,2.28,0,0,0,.86-.15,2,2,0,0,0,.65-.39,2.94,2.94,0,0,0,.5-.59,5.27,5.27,0,0,0,.42-.75c0-.07.12-.11.26-.11a.31.31,0,0,1,.18,0l.18.1a4.55,4.55,0,0,0-.27.77c-.07.31-.14.59-.21.86a6.84,6.84,0,0,1-.21.7c-.08.2-.17.29-.28.29h-.39c-.17,0-.36,0-.56,0s-.4,0-.6,0h-4.26l-1.06,0-1.07.06a1,1,0,0,1,0-.27c0-.16.06-.25.17-.27a3.77,3.77,0,0,0,.93-.26.48.48,0,0,0,.28-.48V80.61a.5.5,0,0,0-.24-.47,4.53,4.53,0,0,0-1-.26c-.11,0-.17-.12-.17-.29s0-.1,0-.14l0-.13,1.22.07H181a13.1,13.1,0,0,0,1.33-.05l.75,0c.14,0,.24.09.29.28a4.59,4.59,0,0,1,.13.68c0,.26.08.53.12.83a2,2,0,0,0,.26.75.52.52,0,0,1-.31.1.28.28,0,0,1-.29-.15c-.14-.3-.27-.55-.39-.76a2.05,2.05,0,0,0-.44-.52,1.58,1.58,0,0,0-.59-.31,3.5,3.5,0,0,0-.86-.1Z"/><polyline class="cls-2" points="4.33 50.83 108.34 5 212.75 50.83"/></svg>