<?xml version="1.0" encoding="utf-8"?>
<!-- Generator: Adobe Illustrator 23.0.1, SVG Export Plug-In . SVG Version: 6.00 Build 0)  -->
<svg version="1.1" id="Layer_1" xmlns="http://www.w3.org/2000/svg" xmlns:xlink="http://www.w3.org/1999/xlink" x="0px" y="0px"
	 viewBox="0 0 216.6 94.3" style="enable-background:new 0 0 216.6 94.3;" xml:space="preserve">
<style type="text/css">
	.st0{fill:#FFFFFF;}
	.st1{fill:none;stroke:#FFFFFF;stroke-width:0.92;stroke-miterlimit:10;}
</style>
<title>whitelogo</title>
<path class="st0" d="M55.9,48.5c0.1-0.1,0.1-0.2,0.2-0.3c0.1-0.1,0.2-0.2,0.4-0.2c0.2-0.1,0.4-0.1,0.7-0.2c0.4,0,0.8-0.1,1.2-0.1
	c0.2,0,0.5,0,0.9,0h1.2l1.3-0.1l1.2-0.1c0,0.2,0.1,0.4,0.1,0.7c0,0.5-0.1,0.7-0.4,0.7c-0.7,0-1.4,0.2-2,0.6
	c-0.3,0.2-0.5,0.6-0.5,0.9c0,0,0,0.4,0.1,1.1s0.1,1.9,0.2,3.6s0.2,3.9,0.3,6.6c0.1,2.8,0.3,6.2,0.4,10.3c0,0.5,0.2,0.9,0.5,1.2
	c0.6,0.3,1.3,0.6,2,0.6c0.1,0,0.3,0.1,0.3,0.2c0.1,0.1,0.1,0.3,0.1,0.4c0,0.2,0,0.5-0.1,0.7L61.2,75c-0.8,0-1.5,0-2.2,0h-1h-1.3
	l-1.4,0.1l-1.2,0.1c0-0.2-0.1-0.4-0.1-0.7c0-0.4,0.1-0.7,0.4-0.7c0.8-0.1,1.6-0.4,2.3-0.7c0.4-0.2,0.6-0.7,0.6-1.1
	c0-0.1,0-0.6-0.1-1.6s-0.1-2.1-0.2-3.5s-0.1-2.8-0.2-4.4s-0.1-3.1-0.2-4.5s-0.1-2.6-0.2-3.6s-0.1-1.6-0.1-1.9l-9.2,22.2
	c-0.1,0.2-0.2,0.4-0.3,0.6c-0.1,0.1-0.2,0.2-0.4,0.2c-0.1,0-0.2,0-0.4,0L35.9,51.9c0,0.3-0.1,1-0.1,2s-0.1,2.3-0.2,3.8
	s-0.2,3-0.2,4.7s-0.2,3.2-0.2,4.6s-0.1,2.6-0.2,3.5s0,1.5,0,1.5c0,0.9,0.9,1.5,2.8,1.8c0.3,0,0.4,0.2,0.4,0.7c0,0.2,0,0.4-0.1,0.7
	L35.9,75c-0.7,0-1.4,0-1.9,0s-1,0-1.8,0.1s-1.5,0.1-2.1,0.2C30,75,30,74.8,30,74.5c0-0.4,0.1-0.6,0.4-0.7c0.6-0.1,1.3-0.3,1.8-0.6
	C32.7,73,33,72.5,33,72c0-0.2,0-1,0.1-2.1s0.1-2.5,0.2-4.1s0.2-3.3,0.2-5.1s0.2-3.4,0.2-5s0.1-2.8,0.2-3.8s0.1-1.5,0.1-1.5
	c0-0.4-0.2-0.8-0.5-1c-0.6-0.3-1.3-0.5-2-0.6c-0.3,0-0.4-0.3-0.4-0.7c0-0.2,0-0.4,0.1-0.7l1.2,0.1l1.4,0.1H35c0.4,0,0.8,0,1,0
	c0.4,0,0.8,0,1.2,0.1c0.2,0,0.4,0.1,0.7,0.2c0.1,0,0.3,0.1,0.3,0.2c0.1,0.1,0.1,0.2,0.2,0.3l9,20.9L55.9,48.5z"/>
<path class="st0" d="M75.2,72c0,0.5,0.2,0.9,0.6,1.2c0.7,0.3,1.4,0.5,2.2,0.7c0.3,0.1,0.4,0.3,0.4,0.7c0,0.2,0,0.5-0.1,0.7
	c-0.9-0.1-1.7-0.1-2.6-0.2s-1.7,0-2.5,0s-1.6,0-2.5,0.1s-1.8,0.1-2.6,0.2C68.1,75,68,74.8,68,74.5c0-0.4,0.1-0.6,0.4-0.7
	c0.8-0.1,1.5-0.3,2.2-0.6c0.4-0.3,0.7-0.7,0.6-1.2V50.7c0-0.5-0.2-0.9-0.6-1.2c-0.7-0.3-1.4-0.5-2.2-0.6c-0.1,0-0.3-0.1-0.3-0.2
	c-0.1-0.1-0.1-0.3-0.1-0.5c0-0.2,0-0.5,0.1-0.7c0.8,0.1,1.7,0.1,2.6,0.2s1.7,0.1,2.4,0.1s1.5,0,2.4-0.1s1.8-0.1,2.7-0.2
	c0.1,0.2,0.1,0.4,0.1,0.7c0,0.4-0.1,0.7-0.4,0.7c-0.8,0.1-1.5,0.3-2.2,0.6c-0.4,0.3-0.6,0.7-0.6,1.2L75.2,72z"/>
<path class="st0" d="M89.8,71.9c0,0.4,0.2,0.8,0.6,1c0.5,0.2,1.1,0.3,1.7,0.3h4.6c0.7,0,1.4-0.1,2.1-0.3c0.6-0.2,1.1-0.5,1.5-0.9
	c0.4-0.4,0.8-0.9,1.1-1.4c0.3-0.6,0.6-1.3,0.8-1.9c0.1-0.2,0.3-0.4,0.5-0.3c0.2,0,0.3,0,0.4,0.1l0.5,0.2c-0.2,0.8-0.4,1.7-0.6,2.7
	s-0.3,2-0.5,3.2c0,0.3-0.1,0.5-0.2,0.6c-0.2,0.1-0.3,0.1-0.5,0.1c-0.5,0-1.1,0-1.8-0.1s-1.3-0.1-1.9-0.1H87.8c-0.7,0-1.5,0-2.4,0.1
	c-1,0-1.9,0.1-2.8,0.2c0-0.2-0.1-0.4-0.1-0.7c0-0.4,0.1-0.6,0.4-0.7c0.8-0.1,1.6-0.3,2.3-0.7c0.4-0.2,0.7-0.6,0.6-1.1V50.7
	c0-0.5-0.2-0.9-0.6-1.2c-0.7-0.3-1.5-0.5-2.2-0.6c-0.1,0-0.3-0.1-0.3-0.2c-0.1-0.1-0.1-0.3-0.1-0.4c0-0.2,0-0.5,0.1-0.7l2.8,0.2
	c0.9,0,1.7,0.1,2.3,0.1c1,0,2,0,3-0.1s2-0.1,2.8-0.2c0,0.2,0.1,0.4,0.1,0.7c0,0.5-0.2,0.7-0.5,0.8c-0.9,0.1-1.8,0.3-2.7,0.6
	c-0.6,0.3-0.9,0.8-0.9,1.5V71.9z"/>
<path class="st0" d="M117.1,49.5v22.4c0,0.6,0.3,1.1,0.8,1.4c0.9,0.3,1.8,0.5,2.7,0.6c0.3,0,0.5,0.2,0.5,0.7c0,0.2,0,0.5-0.1,0.7
	c-0.9-0.1-1.8-0.1-2.8-0.2s-2-0.1-3-0.1s-2,0-3,0.1s-2,0.1-2.9,0.2c-0.1-0.2-0.1-0.5-0.1-0.7c0-0.4,0.1-0.6,0.4-0.7
	c0.9-0.1,1.8-0.3,2.7-0.6c0.5-0.2,0.9-0.8,0.8-1.3V49.5h-4.3c-0.7,0-1.4,0.1-2.1,0.2c-0.5,0.2-1,0.4-1.5,0.8
	c-0.4,0.4-0.8,0.8-1.1,1.3c-0.3,0.5-0.6,1.2-1,1.8c-0.1,0.1-0.2,0.2-0.3,0.3c-0.1,0-0.2,0.1-0.3,0.1c-0.3,0-0.6-0.1-0.8-0.2
	c0.3-1,0.5-1.9,0.6-2.7s0.3-1.4,0.4-2c0.1-0.4,0.2-0.8,0.3-1.2c0.1-0.3,0.3-0.4,0.6-0.4c0.2,0,0.5,0,0.8,0l1.2,0.1l1.2,0.1
	c0.4,0,0.8,0,1.2,0h14c0.3,0,0.7,0,1.1,0l1.3-0.1l1.2-0.1c0.3,0,0.6,0,0.9,0c0.3,0,0.5,0.2,0.6,0.4c0.2,0.4,0.3,0.8,0.3,1.2
	c0.1,0.5,0.2,1.2,0.4,2c0.1,0.9,0.4,1.8,0.7,2.6l-0.4,0.2c-0.1,0.1-0.3,0.1-0.4,0.1c-0.1,0-0.3,0-0.4-0.1c-0.1-0.1-0.2-0.2-0.3-0.3
	c-0.3-0.7-0.6-1.3-0.9-1.8c-0.3-0.5-0.6-0.9-1.1-1.3c-0.4-0.3-0.9-0.6-1.5-0.8c-0.7-0.2-1.4-0.3-2.1-0.2L117.1,49.5z"/>
<path class="st0" d="M129.9,61.3c0-1.9,0.4-3.7,1.1-5.4c0.7-1.7,1.6-3.2,2.9-4.5c1.2-1.3,2.6-2.3,4.1-3.1c1.6-0.7,3.3-1.1,5-1.1
	c2.2,0,4.3,0.3,6.4,1.2c3.4,1.4,6,4.1,7.2,7.6c0.6,1.7,0.9,3.5,0.9,5.4c0,2-0.3,4-1.1,5.9c-0.7,1.7-1.7,3.2-3,4.4
	c-1.3,1.2-2.8,2.2-4.5,2.8c-1.8,0.7-3.6,1-5.5,1c-1.9,0-3.7-0.3-5.4-1c-1.6-0.6-3.1-1.6-4.2-2.9c-1.2-1.3-2.2-2.8-2.8-4.5
	C130.2,65.3,129.9,63.3,129.9,61.3z M144.3,73.4c1.2,0,2.5-0.2,3.6-0.8c1.1-0.5,2-1.2,2.8-2.1c0.8-0.9,1.4-2,1.8-3.2
	c0.4-1.3,0.7-2.6,0.6-4c0-1.9-0.2-3.8-0.6-5.6c-0.4-1.6-1-3.1-1.9-4.5c-0.8-1.2-1.9-2.3-3.2-3c-1.4-0.8-3-1.1-4.5-1.1
	c-1.1,0-2.2,0.2-3.3,0.7c-1,0.4-2,1.1-2.8,1.9c-0.8,0.9-1.5,1.9-1.9,3c-0.5,1.3-0.7,2.7-0.7,4.1c0,1.9,0.2,3.9,0.7,5.8
	c0.4,1.6,1.1,3.2,1.9,4.6c0.8,1.2,1.9,2.3,3.2,3C141.3,73.1,142.8,73.4,144.3,73.4L144.3,73.4z"/>
<path class="st0" d="M183.2,68.3V50.8c0.1-0.5-0.2-1-0.7-1.3c-0.7-0.3-1.5-0.5-2.3-0.6c-0.3,0-0.5-0.3-0.5-0.7c0-0.2,0-0.4,0.1-0.7
	c0.7,0.1,1.4,0.1,2.1,0.2s1.4,0.1,2.1,0.1s1.3,0,1.9-0.1s1.3-0.1,2-0.2c0,0.2,0.1,0.4,0.1,0.7c0,0.5-0.1,0.7-0.4,0.7
	c-0.7,0-1.4,0.2-2,0.6c-0.4,0.3-0.6,0.8-0.5,1.2v24.7c-0.1,0-0.2,0.1-0.3,0.1h-0.3c-0.2,0-0.4,0-0.5-0.2c-0.2-0.2-0.4-0.4-0.6-0.6
	l-17-22.4V72c0,0.5,0.2,0.9,0.6,1.2c0.7,0.3,1.5,0.5,2.3,0.6c0.3,0.1,0.4,0.3,0.4,0.7c0,0.2,0,0.5-0.1,0.7c-0.7-0.1-1.4-0.1-2.1-0.2
	s-1.4-0.1-2-0.1s-1.2,0-2,0.1s-1.4,0.1-2.1,0.2c-0.1-0.2-0.1-0.4-0.1-0.7c0-0.4,0.1-0.6,0.5-0.7c0.7-0.1,1.4-0.3,2-0.6
	c0.4-0.3,0.6-0.7,0.5-1.2V50.5c0-0.4-0.2-0.8-0.5-1c-0.6-0.3-1.3-0.5-2-0.6c-0.3,0-0.5-0.3-0.5-0.7c0-0.1,0-0.2,0-0.4
	c0-0.1,0-0.2,0-0.3c0.6,0.1,1.1,0.1,1.6,0.1s0.9,0,1.4,0.1s0.9,0,1.3,0c0.5,0,1.1,0,1.6,0.1c0.3,0,0.5,0.2,0.6,0.4L183.2,68.3z"/>
<path class="st0" d="M35.2,85.5H34v3.8c0,0.2,0.1,0.4,0.3,0.5c0.3,0.1,0.7,0.2,1.1,0.2c0.1,0,0.2,0.1,0.2,0.3c0,0,0,0,0,0
	c0,0.1,0,0.2,0,0.3l-1.1-0.1h-1.3h-1L31,90.6c0-0.1,0-0.2,0-0.3c0-0.2,0.1-0.2,0.2-0.3c0.3,0,0.6-0.1,0.9-0.2
	c0.2-0.1,0.3-0.3,0.3-0.5v-8.7c0-0.2-0.1-0.4-0.2-0.5c-0.3-0.2-0.7-0.2-1-0.2c-0.1,0-0.2-0.1-0.2-0.3c0-0.1,0-0.2,0-0.3l1.1,0.1h1
	h2.3c1-0.1,2,0.2,2.8,0.8c0.6,0.5,1,1.4,0.9,2.2c0,0.3,0,0.5-0.1,0.8c-0.1,0.3-0.2,0.6-0.4,0.8c-0.2,0.3-0.4,0.5-0.7,0.7
	c-0.3,0.2-0.6,0.4-1,0.5l2.8,4c0.2,0.3,0.4,0.5,0.7,0.6c0.2,0.1,0.5,0.2,0.7,0.3c0.1,0,0.2,0.1,0.2,0.2c0,0.1,0,0.2,0,0.3l-1-0.1h-1
	c-0.3,0-0.5-0.1-0.7-0.3c-0.3-0.2-0.5-0.5-0.7-0.8L35.2,85.5z M34.8,84.8c0.7,0,1.3-0.1,1.8-0.5c0.5-0.5,0.7-1.1,0.7-1.8
	c0-0.3,0-0.7-0.1-1C37,81,36.6,80.5,36,80.3c-0.4-0.1-0.8-0.2-1.2-0.2H34v4.7L34.8,84.8z"/>
<path class="st0" d="M49.8,80.1v4.4h2.7c0.2,0,0.4-0.1,0.5-0.3c0.1-0.3,0.2-0.5,0.2-0.8c0-0.1,0.2-0.2,0.3-0.2c0,0,0,0,0,0h0.1h0.1
	c0,0.2,0,0.5-0.1,0.8s0,0.6,0,0.8s0,0.4,0,0.7s0,0.6,0.1,0.9h-0.3c-0.2,0-0.3-0.1-0.3-0.2c-0.1-0.3-0.1-0.5-0.2-0.8
	c-0.1-0.2-0.3-0.3-0.5-0.3h-2.7v4c0,0.2,0.2,0.4,0.5,0.5c0.5,0.1,1,0.1,1.5,0.1h0.9c0.3,0,0.6,0,0.9-0.2c0.2-0.1,0.5-0.2,0.7-0.4
	c0.2-0.2,0.4-0.4,0.5-0.6c0.2-0.2,0.3-0.5,0.4-0.8c0-0.1,0.1-0.1,0.3-0.1c0.1,0,0.1,0,0.2,0l0.2,0.1c-0.1,0.2-0.2,0.5-0.3,0.8
	c-0.1,0.3-0.1,0.6-0.2,0.9c-0.1,0.2-0.1,0.5-0.2,0.7c-0.1,0.2-0.2,0.3-0.3,0.3h-0.4c-0.2,0-0.3,0-0.5,0s-0.4,0-0.6,0H49h-1.1
	l-1.1,0.1c0-0.1,0-0.2,0-0.3c0-0.2,0.1-0.2,0.2-0.3c0.3,0,0.6-0.1,0.9-0.3c0.2-0.1,0.3-0.3,0.3-0.5v-8.6c0-0.2-0.1-0.4-0.2-0.5
	c-0.3-0.1-0.7-0.2-1-0.3c-0.1,0-0.2-0.1-0.2-0.3s0-0.1,0-0.1v-0.1l1.2,0.1h4.2c0.4,0,0.9,0,1.3-0.1h0.7c0.2,0,0.2,0.1,0.3,0.3
	c0.1,0.2,0.1,0.5,0.1,0.7c0,0.3,0.1,0.5,0.1,0.8c0,0.3,0.1,0.5,0.3,0.8C55.1,81.9,55,82,54.9,82c-0.1,0-0.2,0-0.3-0.2
	c-0.1-0.3-0.3-0.6-0.4-0.8c-0.1-0.2-0.3-0.4-0.4-0.5c-0.2-0.1-0.4-0.2-0.6-0.3c-0.3-0.1-0.6-0.1-0.9-0.1L49.8,80.1z"/>
<path class="st0" d="M68.4,86.4h-3.8l-1.1,2.8c-0.1,0.1-0.1,0.2-0.1,0.3c0,0.2,0.3,0.4,1,0.5c0.1,0,0.1,0,0.2,0.1c0,0.1,0,0.1,0,0.2
	c0,0.1,0,0.2,0,0.3l-1-0.1h-1H62l-0.8,0.1c0-0.1,0-0.2,0-0.3c0-0.1,0-0.1,0-0.2c0-0.1,0.1-0.1,0.2-0.1c0.3,0,0.5-0.1,0.8-0.2
	c0.2-0.1,0.3-0.2,0.4-0.4l4.1-9.9c0.1-0.2,0.2-0.3,0.3-0.3h0.2l4.1,10.2c0.1,0.2,0.3,0.3,0.5,0.4c0.2,0.1,0.5,0.1,0.7,0.2
	c0.1,0,0.1,0.1,0.2,0.1c0,0.1,0.1,0.1,0.1,0.2c0,0.1,0,0.2,0,0.3l-1.1,0h-1h-1.1l-1.1,0.1c0-0.1,0-0.2,0-0.3c0-0.1,0-0.2,0.1-0.2
	c0,0,0.1-0.1,0.1-0.1c0.2,0,0.5-0.1,0.7-0.2c0.2-0.1,0.3-0.2,0.3-0.3c0-0.1,0-0.2-0.1-0.3L68.4,86.4z M68.1,85.7l-1.6-4.2l-1.7,4.2
	H68.1z"/>
<path class="st0" d="M81.3,89.2c0,0.2,0.1,0.3,0.2,0.4c0.2,0.1,0.5,0.1,0.7,0.1h1.9c0.3,0,0.6,0,0.8-0.1c0.2-0.1,0.4-0.2,0.6-0.4
	c0.2-0.2,0.3-0.4,0.5-0.6c0.1-0.3,0.3-0.5,0.3-0.8c0-0.1,0.1-0.1,0.2-0.1c0.1,0,0.1,0,0.2,0l0.2,0.1c-0.1,0.3-0.2,0.7-0.2,1.1
	s-0.1,0.8-0.2,1.3c0,0.1,0,0.2-0.1,0.2c-0.1,0-0.1,0-0.2,0c-0.2,0-0.5,0-0.7,0c-0.3,0-0.5,0-0.8,0h-4.3h-1l-1.1,0.1
	c0-0.1,0-0.2,0-0.3c0-0.2,0.1-0.2,0.2-0.3c0.3,0,0.7-0.1,1-0.3c0.2-0.1,0.3-0.3,0.3-0.4v-8.7c0-0.2-0.1-0.4-0.2-0.5
	c-0.3-0.1-0.6-0.2-0.9-0.2c-0.1,0-0.1,0-0.1-0.1c0-0.1,0-0.1,0-0.2c0-0.1,0-0.2,0-0.3l1.1,0.1h1h1.2l1.2-0.1c0,0.1,0,0.2,0,0.3
	c0,0.2-0.1,0.3-0.2,0.3c-0.4,0-0.7,0.1-1.1,0.2c-0.2,0.1-0.4,0.3-0.3,0.6L81.3,89.2z"/>
<path class="st0" d="M104,80.1v4.4h2.7c0.2,0,0.4-0.1,0.5-0.3c0.1-0.3,0.2-0.5,0.2-0.8c0-0.1,0.2-0.2,0.3-0.2c0,0,0,0,0,0h0.1h0.1
	c0,0.2,0,0.5-0.1,0.8s0,0.6,0,0.8s0,0.4,0,0.7s0,0.6,0.1,0.9h-0.3c-0.2,0-0.3-0.1-0.3-0.2c-0.1-0.3-0.1-0.5-0.2-0.8
	c-0.1-0.2-0.3-0.3-0.5-0.3H104v4c0,0.2,0.2,0.4,0.5,0.5c0.5,0.1,1,0.1,1.5,0.1h0.9c0.3,0,0.6,0,0.9-0.2c0.2-0.1,0.5-0.2,0.6-0.4
	c0.2-0.2,0.4-0.4,0.5-0.6c0.2-0.2,0.3-0.5,0.4-0.8c0-0.1,0.1-0.1,0.3-0.1c0.1,0,0.1,0,0.2,0l0.2,0.1c-0.1,0.2-0.2,0.5-0.3,0.8
	c-0.1,0.3-0.1,0.6-0.2,0.9c-0.1,0.2-0.1,0.5-0.2,0.7c-0.1,0.2-0.2,0.3-0.3,0.3h-0.4c-0.2,0-0.3,0-0.6,0h-0.6h-4.3h-1l-1.1,0.1
	c0-0.1,0-0.2,0-0.3c0-0.2,0.1-0.2,0.2-0.3c0.3,0,0.6-0.1,0.9-0.3c0.2-0.1,0.3-0.3,0.3-0.5v-8.6c0-0.2-0.1-0.4-0.2-0.5
	c-0.3-0.1-0.7-0.2-1-0.3c-0.1,0-0.2-0.1-0.2-0.3c0,0,0-0.1,0-0.1c0,0,0-0.1,0-0.1l1.2,0.1h4.2c0.4,0,0.9,0,1.3-0.1h0.8
	c0.2,0,0.2,0.1,0.3,0.3c0.1,0.2,0.1,0.5,0.1,0.7c0,0.3,0.1,0.5,0.1,0.8c0,0.3,0.1,0.5,0.2,0.8c-0.1,0.1-0.2,0.1-0.3,0.1
	c-0.1,0-0.2,0-0.3-0.2c-0.1-0.3-0.3-0.5-0.4-0.8c-0.1-0.2-0.3-0.4-0.4-0.5c-0.2-0.1-0.4-0.3-0.6-0.3c-0.3-0.1-0.6-0.1-0.9-0.1
	L104,80.1z"/>
<path class="st0" d="M123.3,82.1h-0.2c-0.1,0-0.2,0-0.3-0.1c-0.1-0.1-0.1-0.1-0.2-0.2c-0.2-0.6-0.6-1-1.1-1.4
	c-0.7-0.4-1.6-0.6-2.4-0.3c-0.2,0.1-0.4,0.2-0.6,0.3c-0.2,0.1-0.3,0.3-0.4,0.5c-0.1,0.2-0.2,0.4-0.2,0.7c0,0.5,0.3,1,0.7,1.3
	c0.6,0.4,1.3,0.8,2,1c0.9,0.3,1.7,0.8,2.4,1.4c0.5,0.5,0.8,1.3,0.8,2c0,0.4-0.1,0.9-0.2,1.3c-0.1,0.4-0.4,0.8-0.7,1.1
	c-0.3,0.3-0.7,0.6-1.2,0.7c-0.6,0.2-1.1,0.3-1.7,0.2c-0.6,0-1.3-0.1-1.9-0.2c-0.5-0.1-1-0.3-1.5-0.6c0-0.5-0.1-0.9-0.2-1.4
	s-0.2-0.9-0.2-1.3c0.1,0,0.2,0,0.3,0c0.1,0,0.2,0,0.3,0.1c0.1,0.1,0.2,0.2,0.2,0.3c0.2,0.7,0.6,1.3,1.1,1.8c0.5,0.4,1.2,0.6,1.9,0.6
	c0.3,0,0.7,0,1-0.2c0.3-0.1,0.5-0.2,0.7-0.4c0.2-0.2,0.3-0.4,0.4-0.6c0.1-0.2,0.1-0.5,0.1-0.7c0-0.5-0.2-1-0.6-1.4
	c-0.5-0.4-1.1-0.7-1.7-0.9c-0.5-0.2-0.9-0.4-1.3-0.6c-0.4-0.2-0.7-0.4-1-0.7c-0.3-0.3-0.5-0.6-0.7-0.9c-0.2-0.4-0.2-0.8-0.2-1.2
	c0-0.4,0.1-0.8,0.2-1.2c0.1-0.4,0.4-0.7,0.7-1c0.3-0.3,0.6-0.5,1-0.7c0.4-0.2,0.9-0.2,1.4-0.2c0.5,0,1,0,1.5,0.2
	c0.6,0.1,1.1,0.3,1.7,0.5c0,0.3,0.1,0.7,0.1,1.1S123.3,81.7,123.3,82.1z"/>
<path class="st0" d="M135.6,80.1v9.1c0,0.2,0.1,0.5,0.3,0.6c0.3,0.1,0.7,0.2,1.1,0.2c0.1,0,0.2,0.1,0.2,0.3c0,0.1,0,0.2,0,0.3
	l-1.2-0.1h-1.2h-1.2l-1.2,0.1c0-0.1,0-0.2,0-0.3c0-0.2,0.1-0.2,0.2-0.3c0.4,0,0.8-0.1,1.1-0.3c0.2-0.1,0.4-0.3,0.3-0.5v-9.1h-1.8
	c-0.3,0-0.6,0-0.9,0.1c-0.2,0.1-0.4,0.2-0.6,0.3c-0.2,0.1-0.3,0.3-0.4,0.5c-0.1,0.2-0.3,0.5-0.4,0.8c0,0.1-0.1,0.1-0.1,0.1h-0.1
	c-0.1,0-0.2,0-0.3-0.1c0.1-0.4,0.2-0.7,0.3-1.1l0.1-0.8c0-0.2,0.1-0.3,0.1-0.5c0-0.1,0.1-0.2,0.2-0.2h0.3h0.5h0.5h6.6h0.5h0.5h0.4
	c0.1,0,0.2,0.1,0.2,0.2c0.1,0.2,0.1,0.3,0.1,0.5c0,0.2,0.1,0.5,0.1,0.8c0.1,0.4,0.1,0.7,0.3,1.1l-0.2,0.1c-0.1,0-0.1,0-0.2,0h-0.1
	c-0.1,0-0.1-0.1-0.1-0.1c-0.1-0.3-0.2-0.5-0.4-0.8c-0.1-0.2-0.3-0.4-0.4-0.5c-0.2-0.1-0.4-0.2-0.6-0.3c-0.3-0.1-0.6-0.1-0.9-0.1
	L135.6,80.1z"/>
<path class="st0" d="M151,86.4h-3.8l-1.1,2.8c-0.1,0.1-0.1,0.2-0.1,0.3c0,0.2,0.4,0.4,1,0.5c0.1,0,0.1,0,0.2,0.1
	c0,0.1,0,0.1,0.1,0.2c0,0.1,0,0.2,0,0.3l-1-0.1h-1h-0.7l-0.8,0.1c0-0.1,0-0.2,0-0.3c0-0.1,0-0.1,0.1-0.2c0-0.1,0.1-0.1,0.2-0.1
	c0.3,0,0.5-0.1,0.8-0.2c0.2-0.1,0.3-0.2,0.4-0.4l4.1-9.9c0.1-0.2,0.2-0.3,0.3-0.3h0.2l4.1,10.2c0.1,0.2,0.3,0.3,0.5,0.4
	c0.2,0.1,0.5,0.1,0.7,0.2c0.1,0,0.1,0.1,0.2,0.1c0,0.1,0.1,0.1,0.1,0.2c0,0.1,0,0.2,0,0.3l-1.1-0.1h-1h-1.1l-1.1,0.1
	c0-0.1,0-0.2,0-0.3c0-0.1,0-0.2,0.1-0.2c0,0,0.1-0.1,0.1-0.1c0.2,0,0.5-0.1,0.7-0.2c0.2,0,0.3-0.2,0.3-0.3c0-0.1,0-0.2-0.1-0.3
	L151,86.4z M150.7,85.7l-1.6-4.2l-1.6,4.2H150.7z"/>
<path class="st0" d="M165.2,80.1v9.1c0,0.2,0.1,0.5,0.3,0.6c0.3,0.1,0.7,0.2,1.1,0.2c0.1,0,0.2,0.1,0.2,0.3c0,0.1,0,0.2,0,0.3
	l-1.1-0.1h-1.2h-1.2l-1.2,0.1c0-0.1,0-0.2,0-0.3c0-0.2,0.1-0.2,0.2-0.3c0.4,0,0.8-0.1,1.1-0.3c0.2-0.1,0.4-0.3,0.3-0.5v-9.1h-1.8
	c-0.3,0-0.6,0-0.9,0.1c-0.2,0.1-0.4,0.2-0.6,0.3c-0.2,0.1-0.3,0.3-0.5,0.5c-0.1,0.2-0.2,0.5-0.4,0.8c0,0.1-0.1,0.1-0.1,0.1h-0.1
	c-0.1,0-0.2,0-0.3-0.1c0.1-0.4,0.2-0.7,0.3-1.1c0-0.3,0.1-0.6,0.1-0.8c0-0.2,0.1-0.3,0.1-0.5c0-0.1,0.1-0.2,0.2-0.2h0.3h0.5h0.5h6.6
	h0.5h0.5h0.4c0.1,0,0.2,0.1,0.2,0.2c0.1,0.2,0.1,0.3,0.1,0.5c0.1,0.2,0.1,0.5,0.1,0.8c0.1,0.4,0.1,0.7,0.3,1.1l-0.2,0.1
	c-0.1,0-0.1,0-0.2,0c0,0-0.1,0-0.1,0c-0.1,0-0.1-0.1-0.1-0.1c-0.1-0.3-0.2-0.5-0.4-0.8c-0.1-0.2-0.3-0.4-0.4-0.5
	c-0.2-0.1-0.4-0.2-0.6-0.3c-0.3-0.1-0.6-0.1-0.9-0.1L165.2,80.1z"/>
<path class="st0" d="M178.5,80.1v4.4h2.6c0.2,0,0.4-0.1,0.5-0.3c0.1-0.3,0.2-0.5,0.2-0.8c0-0.2,0.1-0.2,0.3-0.2h0.1h0.1
	c0,0.2,0,0.5-0.1,0.8s0,0.6,0,0.8s0,0.4,0,0.7s0,0.6,0.1,0.9h-0.3c-0.2,0-0.3-0.1-0.3-0.2c0-0.3-0.1-0.5-0.2-0.8
	c-0.1-0.2-0.3-0.3-0.5-0.3h-2.6v4c0,0.2,0.1,0.4,0.5,0.5c0.5,0.1,1,0.1,1.5,0.1h0.9c0.3,0,0.6,0,0.9-0.2c0.2-0.1,0.5-0.2,0.6-0.4
	c0.2-0.2,0.4-0.4,0.5-0.6c0.2-0.2,0.3-0.5,0.4-0.8c0-0.1,0.1-0.1,0.3-0.1c0.1,0,0.1,0,0.2,0l0.2,0.1c-0.1,0.2-0.2,0.5-0.3,0.8
	c-0.1,0.3-0.1,0.6-0.2,0.9c-0.1,0.2-0.1,0.5-0.2,0.7c-0.1,0.2-0.2,0.3-0.3,0.3h-0.4c-0.2,0-0.4,0-0.6,0s-0.4,0-0.6,0h-4.3h-1.1
	l-1.1,0.1c0-0.1,0-0.2,0-0.3c0-0.2,0.1-0.2,0.2-0.3c0.3,0,0.6-0.1,0.9-0.3c0.2-0.1,0.3-0.3,0.3-0.5v-8.6c0-0.2-0.1-0.4-0.2-0.5
	c-0.3-0.1-0.7-0.2-1-0.3c-0.1,0-0.2-0.1-0.2-0.3s0-0.1,0-0.1v-0.1l1.2,0.1h4.3c0.4,0,0.9,0,1.3-0.1h0.8c0.1,0,0.2,0.1,0.3,0.3
	c0.1,0.2,0.1,0.5,0.1,0.7c0,0.3,0.1,0.5,0.1,0.8c0,0.3,0.1,0.5,0.3,0.8c-0.1,0.1-0.2,0.1-0.3,0.1c-0.1,0-0.2,0-0.3-0.2
	c-0.1-0.3-0.3-0.6-0.4-0.8c-0.1-0.2-0.3-0.4-0.4-0.5c-0.2-0.1-0.4-0.2-0.6-0.3c-0.3-0.1-0.6-0.1-0.9-0.1L178.5,80.1z"/>
<polyline class="st1" points="4.3,50.8 108.3,5 212.8,50.8 "/>
</svg>
